<svg width="512" height="512" viewBox="0 0 512 512" fill="none" xmlns="http://www.w3.org/2000/svg">
<g clip-path="url(#clip0)">
<path d="M512 0V512L0 0L512 0Z" fill="white"/>
<path d="M444.788 67.7878C395.733 18.7325 316.933 18.0667 268.751 66.2489C230.195 104.805 222.936 162.939 246.68 209.737C250.298 214.998 254.626 213.925 256.942 211.609C259.014 209.538 264.43 203.974 271.666 196.663C241.708 177.226 253.465 155.052 253.465 155.052C259.495 140.942 256.35 132.411 256.35 132.411C253.716 118.959 262.27 127.735 262.27 127.735C270.579 137.257 266.879 150.324 266.879 150.324C261.456 171.581 278.177 180.593 285.48 183.441C291.925 178.595 298.051 177.041 302.772 177.396C285.236 155.495 272.014 127.268 305.443 93.8397C314.965 84.3172 326.189 79.974 337.991 79.567C339.197 76.3633 345.072 64.4953 361.86 57.2517C361.86 57.2517 371.634 62.3496 377.331 90.6137C386.373 95.7782 394.882 102.363 402.473 109.866C409.975 117.457 416.561 125.966 421.725 135.008C449.878 140.594 454.976 150.368 454.976 150.368C447.732 167.156 435.864 173.031 432.772 174.348C432.328 186.112 427.985 197.337 418.462 206.859C384.945 240.377 356.814 226.999 334.913 209.39C335.401 215.116 332.937 223.352 324.761 231.527C313.086 243.203 303.593 252.474 300.759 255.308C298.473 257.594 297.296 261.878 302.72 265.555C349.696 289.624 407.83 282.321 446.327 243.824C494.509 195.642 493.821 116.821 444.788 67.7878Z" fill="#325476"/>
</g>
<defs>
<clipPath id="clip0">
<rect width="512" height="512" fill="white"/>
</clipPath>
</defs>
</svg>
