<svg width="386" height="101" viewBox="0 0 386 101" fill="none" xmlns="http://www.w3.org/2000/svg">
<path d="M0 0H235V101H0V0Z" fill="#325476"/>
<path d="M17.096 56.2C17.096 52.12 17.912 48.568 19.544 45.544C21.176 42.472 23.432 40.096 26.312 38.416C29.24 36.736 32.576 35.896 36.32 35.896C41.168 35.896 45.152 37.072 48.272 39.424C51.44 41.776 53.528 45.04 54.536 49.216H47.48C46.808 46.816 45.488 44.92 43.52 43.528C41.6 42.136 39.2 41.44 36.32 41.44C32.576 41.44 29.552 42.736 27.248 45.328C24.944 47.872 23.792 51.496 23.792 56.2C23.792 60.952 24.944 64.624 27.248 67.216C29.552 69.808 32.576 71.104 36.32 71.104C39.2 71.104 41.6 70.432 43.52 69.088C45.44 67.744 46.76 65.824 47.48 63.328H54.536C53.48 67.36 51.368 70.6 48.2 73.048C45.032 75.448 41.072 76.648 36.32 76.648C32.576 76.648 29.24 75.808 26.312 74.128C23.432 72.448 21.176 70.072 19.544 67C17.912 63.928 17.096 60.328 17.096 56.2ZM82.8624 35.824C85.8384 35.824 88.5264 36.472 90.9264 37.768C93.3264 39.016 95.1984 40.912 96.5424 43.456C97.9344 46 98.6304 49.096 98.6304 52.744V76H92.1504V53.68C92.1504 49.744 91.1664 46.744 89.1984 44.68C87.2304 42.568 84.5424 41.512 81.1344 41.512C77.6784 41.512 74.9184 42.592 72.8544 44.752C70.8384 46.912 69.8304 50.056 69.8304 54.184V76H63.2784V22.72H69.8304V42.16C71.1264 40.144 72.9024 38.584 75.1584 37.48C77.4624 36.376 80.0304 35.824 82.8624 35.824ZM112.717 30.136C111.469 30.136 110.413 29.704 109.549 28.84C108.685 27.976 108.253 26.92 108.253 25.672C108.253 24.424 108.685 23.368 109.549 22.504C110.413 21.64 111.469 21.208 112.717 21.208C113.917 21.208 114.925 21.64 115.741 22.504C116.605 23.368 117.037 24.424 117.037 25.672C117.037 26.92 116.605 27.976 115.741 28.84C114.925 29.704 113.917 30.136 112.717 30.136ZM115.885 36.544V76H109.333V36.544H115.885ZM141.02 76.648C137.996 76.648 135.284 76.144 132.884 75.136C130.484 74.08 128.588 72.64 127.196 70.816C125.804 68.944 125.036 66.808 124.892 64.408H131.66C131.852 66.376 132.764 67.984 134.396 69.232C136.076 70.48 138.26 71.104 140.948 71.104C143.444 71.104 145.412 70.552 146.852 69.448C148.292 68.344 149.012 66.952 149.012 65.272C149.012 63.544 148.244 62.272 146.708 61.456C145.172 60.592 142.796 59.752 139.58 58.936C136.652 58.168 134.252 57.4 132.38 56.632C130.556 55.816 128.972 54.64 127.628 53.104C126.332 51.52 125.684 49.456 125.684 46.912C125.684 44.896 126.284 43.048 127.484 41.368C128.684 39.688 130.388 38.368 132.596 37.408C134.804 36.4 137.324 35.896 140.156 35.896C144.524 35.896 148.052 37 150.74 39.208C153.428 41.416 154.868 44.44 155.06 48.28H148.508C148.364 46.216 147.524 44.56 145.988 43.312C144.5 42.064 142.484 41.44 139.94 41.44C137.588 41.44 135.716 41.944 134.324 42.952C132.932 43.96 132.236 45.28 132.236 46.912C132.236 48.208 132.644 49.288 133.46 50.152C134.324 50.968 135.38 51.64 136.628 52.168C137.924 52.648 139.7 53.2 141.956 53.824C144.788 54.592 147.092 55.36 148.868 56.128C150.644 56.848 152.156 57.952 153.404 59.44C154.7 60.928 155.372 62.872 155.42 65.272C155.42 67.432 154.82 69.376 153.62 71.104C152.42 72.832 150.716 74.2 148.508 75.208C146.348 76.168 143.852 76.648 141.02 76.648ZM200.669 54.76C200.669 56.008 200.597 57.328 200.453 58.72H168.917C169.157 62.608 170.477 65.656 172.877 67.864C175.325 70.024 178.277 71.104 181.733 71.104C184.565 71.104 186.917 70.456 188.789 69.16C190.709 67.816 192.053 66.04 192.821 63.832H199.877C198.821 67.624 196.709 70.72 193.541 73.12C190.373 75.472 186.437 76.648 181.733 76.648C177.989 76.648 174.629 75.808 171.653 74.128C168.725 72.448 166.421 70.072 164.741 67C163.061 63.88 162.221 60.28 162.221 56.2C162.221 52.12 163.037 48.544 164.669 45.472C166.301 42.4 168.581 40.048 171.509 38.416C174.485 36.736 177.893 35.896 181.733 35.896C185.477 35.896 188.789 36.712 191.669 38.344C194.549 39.976 196.757 42.232 198.293 45.112C199.877 47.944 200.669 51.16 200.669 54.76ZM193.901 53.392C193.901 50.896 193.349 48.76 192.245 46.984C191.141 45.16 189.629 43.792 187.709 42.88C185.837 41.92 183.749 41.44 181.445 41.44C178.133 41.44 175.301 42.496 172.949 44.608C170.645 46.72 169.325 49.648 168.989 53.392H193.901ZM215.869 22.72V76H209.317V22.72H215.869Z" fill="#F9FAFB"/>
<rect x="237.5" y="2.5" width="146" height="96" fill="#F9FAFB" stroke="#325476" stroke-width="5"/>
<path d="M254.096 56.2C254.096 52.12 254.912 48.568 256.544 45.544C258.176 42.472 260.432 40.096 263.312 38.416C266.24 36.736 269.576 35.896 273.32 35.896C278.168 35.896 282.152 37.072 285.272 39.424C288.44 41.776 290.528 45.04 291.536 49.216H284.48C283.808 46.816 282.488 44.92 280.52 43.528C278.6 42.136 276.2 41.44 273.32 41.44C269.576 41.44 266.552 42.736 264.248 45.328C261.944 47.872 260.792 51.496 260.792 56.2C260.792 60.952 261.944 64.624 264.248 67.216C266.552 69.808 269.576 71.104 273.32 71.104C276.2 71.104 278.6 70.432 280.52 69.088C282.44 67.744 283.76 65.824 284.48 63.328H291.536C290.48 67.36 288.368 70.6 285.2 73.048C282.032 75.448 278.072 76.648 273.32 76.648C269.576 76.648 266.24 75.808 263.312 74.128C260.432 72.448 258.176 70.072 256.544 67C254.912 63.928 254.096 60.328 254.096 56.2ZM314.246 76.648C311.222 76.648 308.51 76.144 306.11 75.136C303.71 74.08 301.814 72.64 300.422 70.816C299.03 68.944 298.262 66.808 298.118 64.408H304.886C305.078 66.376 305.99 67.984 307.622 69.232C309.302 70.48 311.486 71.104 314.174 71.104C316.67 71.104 318.638 70.552 320.078 69.448C321.518 68.344 322.238 66.952 322.238 65.272C322.238 63.544 321.47 62.272 319.934 61.456C318.398 60.592 316.022 59.752 312.806 58.936C309.878 58.168 307.478 57.4 305.606 56.632C303.782 55.816 302.198 54.64 300.854 53.104C299.558 51.52 298.91 49.456 298.91 46.912C298.91 44.896 299.51 43.048 300.71 41.368C301.91 39.688 303.614 38.368 305.822 37.408C308.03 36.4 310.55 35.896 313.382 35.896C317.75 35.896 321.278 37 323.966 39.208C326.654 41.416 328.094 44.44 328.286 48.28H321.734C321.59 46.216 320.75 44.56 319.214 43.312C317.726 42.064 315.71 41.44 313.166 41.44C310.814 41.44 308.942 41.944 307.55 42.952C306.158 43.96 305.462 45.28 305.462 46.912C305.462 48.208 305.87 49.288 306.686 50.152C307.55 50.968 308.606 51.64 309.854 52.168C311.15 52.648 312.926 53.2 315.182 53.824C318.014 54.592 320.318 55.36 322.094 56.128C323.87 56.848 325.382 57.952 326.63 59.44C327.926 60.928 328.598 62.872 328.646 65.272C328.646 67.432 328.046 69.376 326.846 71.104C325.646 72.832 323.942 74.2 321.734 75.208C319.574 76.168 317.078 76.648 314.246 76.648ZM351.864 76.648C348.84 76.648 346.128 76.144 343.728 75.136C341.328 74.08 339.432 72.64 338.04 70.816C336.648 68.944 335.88 66.808 335.736 64.408H342.504C342.696 66.376 343.608 67.984 345.24 69.232C346.92 70.48 349.104 71.104 351.792 71.104C354.288 71.104 356.256 70.552 357.696 69.448C359.136 68.344 359.856 66.952 359.856 65.272C359.856 63.544 359.088 62.272 357.552 61.456C356.016 60.592 353.64 59.752 350.424 58.936C347.496 58.168 345.096 57.4 343.224 56.632C341.4 55.816 339.816 54.64 338.472 53.104C337.176 51.52 336.528 49.456 336.528 46.912C336.528 44.896 337.128 43.048 338.328 41.368C339.528 39.688 341.232 38.368 343.44 37.408C345.648 36.4 348.168 35.896 351 35.896C355.368 35.896 358.896 37 361.584 39.208C364.272 41.416 365.712 44.44 365.904 48.28H359.352C359.208 46.216 358.368 44.56 356.832 43.312C355.344 42.064 353.328 41.44 350.784 41.44C348.432 41.44 346.56 41.944 345.168 42.952C343.776 43.96 343.08 45.28 343.08 46.912C343.08 48.208 343.488 49.288 344.304 50.152C345.168 50.968 346.224 51.64 347.472 52.168C348.768 52.648 350.544 53.2 352.8 53.824C355.632 54.592 357.936 55.36 359.712 56.128C361.488 56.848 363 57.952 364.248 59.44C365.544 60.928 366.216 62.872 366.264 65.272C366.264 67.432 365.664 69.376 364.464 71.104C363.264 72.832 361.56 74.2 359.352 75.208C357.192 76.168 354.696 76.648 351.864 76.648Z" fill="#325476"/>
</svg>
