<svg xmlns="http://www.w3.org/2000/svg" width="800" height="400" fill="none" xmlns:v="https://vecta.io/nano"><path fill="#f9fafb" d="M0 0h800v400H0z"/><path d="M207 192H442V293H207V192Z" fill="#325476"/><path d="M224.096 248.2c0-4.08.816-7.632 2.448-10.656 1.632-3.072 3.888-5.448 6.768-7.128 2.928-1.68 6.264-2.52 10.008-2.52 4.848 0 8.832 1.176 11.952 3.528 3.168 2.352 5.256 5.616 6.264 9.792h-7.056c-.672-2.4-1.992-4.296-3.96-5.688-1.92-1.392-4.32-2.088-7.2-2.088-3.744 0-6.768 1.296-9.072 3.888-2.304 2.544-3.456 6.168-3.456 10.872 0 4.752 1.152 8.424 3.456 11.016s5.328 3.888 9.072 3.888c2.88 0 5.28-.672 7.2-2.016s3.24-3.264 3.96-5.76h7.056c-1.056 4.032-3.168 7.272-6.336 9.72-3.168 2.4-7.128 3.6-11.88 3.6-3.744 0-7.08-.84-10.008-2.52-2.88-1.68-5.136-4.056-6.768-7.128s-2.448-6.672-2.448-10.8zm65.766-20.376c2.976 0 5.664.648 8.064 1.944 2.4 1.248 4.272 3.144 5.616 5.688 1.392 2.544 2.088 5.64 2.088 9.288V268h-6.48v-22.32c0-3.936-.984-6.936-2.952-9-1.968-2.112-4.656-3.168-8.064-3.168-3.456 0-6.216 1.08-8.28 3.24-2.016 2.16-3.024 5.304-3.024 9.432V268h-6.552v-53.28h6.552v19.44c1.296-2.016 3.072-3.576 5.328-4.68 2.304-1.104 4.872-1.656 7.704-1.656zm29.855-5.688c-1.248 0-2.304-.432-3.168-1.296s-1.296-1.92-1.296-3.168.432-2.304 1.296-3.168 1.92-1.296 3.168-1.296a3.99 3.99 0 0 1 3.024 1.296c.864.864 1.296 1.92 1.296 3.168s-.432 2.304-1.296 3.168a3.99 3.99 0 0 1-3.024 1.296zm3.168 6.408V268h-6.552v-39.456h6.552zm25.135 40.104c-3.024 0-5.736-.504-8.136-1.512-2.4-1.056-4.296-2.496-5.688-4.32-1.392-1.872-2.16-4.008-2.304-6.408h6.768c.192 1.968 1.104 3.576 2.736 4.824 1.68 1.248 3.864 1.872 6.552 1.872 2.496 0 4.464-.552 5.904-1.656s2.16-2.496 2.16-4.176c0-1.728-.768-3-2.304-3.816-1.536-.864-3.912-1.704-7.128-2.52-2.928-.768-5.328-1.536-7.2-2.304-1.824-.816-3.408-1.992-4.752-3.528-1.296-1.584-1.944-3.648-1.944-6.192 0-2.016.6-3.864 1.8-5.544s2.904-3 5.112-3.96c2.208-1.008 4.728-1.512 7.56-1.512 4.368 0 7.896 1.104 10.584 3.312s4.128 5.232 4.32 9.072h-6.552c-.144-2.064-.984-3.72-2.52-4.968-1.488-1.248-3.504-1.872-6.048-1.872-2.352 0-4.224.504-5.616 1.512s-2.088 2.328-2.088 3.96c0 1.296.408 2.376 1.224 3.24.864.816 1.92 1.488 3.168 2.016 1.296.48 3.072 1.032 5.328 1.656 2.832.768 5.136 1.536 6.912 2.304a11.46 11.46 0 0 1 4.536 3.312c1.296 1.488 1.968 3.432 2.016 5.832 0 2.16-.6 4.104-1.8 5.832s-2.904 3.096-5.112 4.104c-2.16.96-4.656 1.44-7.488 1.44zm59.649-21.888a38.56 38.56 0 0 1-.216 3.96h-31.536c.24 3.888 1.56 6.936 3.96 9.144 2.448 2.16 5.4 3.24 8.856 3.24 2.832 0 5.184-.648 7.056-1.944a10.6 10.6 0 0 0 4.032-5.328h7.056a17.13 17.13 0 0 1-6.336 9.288c-3.168 2.352-7.104 3.528-11.808 3.528-3.744 0-7.104-.84-10.08-2.52-2.928-1.68-5.232-4.056-6.912-7.128-1.68-3.12-2.52-6.72-2.52-10.8s.816-7.656 2.448-10.728 3.912-5.424 6.84-7.056c2.976-1.68 6.384-2.52 10.224-2.52 3.744 0 7.056.816 9.936 2.448s5.088 3.888 6.624 6.768c1.584 2.832 2.376 6.048 2.376 9.648zm-6.768-1.368c0-2.496-.552-4.632-1.656-6.408a10.42 10.42 0 0 0-4.536-4.104c-1.872-.96-3.96-1.44-6.264-1.44-3.312 0-6.144 1.056-8.496 3.168-2.304 2.112-3.624 5.04-3.96 8.784h24.912zm21.968-30.672V268h-6.552v-53.28h6.552z" fill="#f9fafb"/><path stroke="#325476" stroke-width="5" d="M444.5 194.5h146v96h-146z"/><g fill="#325476"><path d="M461.096 248.2c0-4.08.816-7.632 2.448-10.656 1.632-3.072 3.888-5.448 6.768-7.128 2.928-1.68 6.264-2.52 10.008-2.52 4.848 0 8.832 1.176 11.952 3.528 3.168 2.352 5.256 5.616 6.264 9.792h-7.056c-.672-2.4-1.992-4.296-3.96-5.688-1.92-1.392-4.32-2.088-7.2-2.088-3.744 0-6.768 1.296-9.072 3.888-2.304 2.544-3.456 6.168-3.456 10.872 0 4.752 1.152 8.424 3.456 11.016s5.328 3.888 9.072 3.888c2.88 0 5.28-.672 7.2-2.016s3.24-3.264 3.96-5.76h7.056c-1.056 4.032-3.168 7.272-6.336 9.72-3.168 2.4-7.128 3.6-11.88 3.6-3.744 0-7.08-.84-10.008-2.52-2.88-1.68-5.136-4.056-6.768-7.128s-2.448-6.672-2.448-10.8zm60.15 20.448c-3.024 0-5.736-.504-8.136-1.512-2.4-1.056-4.296-2.496-5.688-4.32-1.392-1.872-2.16-4.008-2.304-6.408h6.768c.192 1.968 1.104 3.576 2.736 4.824 1.68 1.248 3.864 1.872 6.552 1.872 2.496 0 4.464-.552 5.904-1.656s2.16-2.496 2.16-4.176c0-1.728-.768-3-2.304-3.816-1.536-.864-3.912-1.704-7.128-2.52-2.928-.768-5.328-1.536-7.2-2.304-1.824-.816-3.408-1.992-4.752-3.528-1.296-1.584-1.944-3.648-1.944-6.192 0-2.016.6-3.864 1.8-5.544s2.904-3 5.112-3.96c2.208-1.008 4.728-1.512 7.56-1.512 4.368 0 7.896 1.104 10.584 3.312s4.128 5.232 4.32 9.072h-6.552c-.144-2.064-.984-3.72-2.52-4.968-1.488-1.248-3.504-1.872-6.048-1.872-2.352 0-4.224.504-5.616 1.512s-2.088 2.328-2.088 3.96c0 1.296.408 2.376 1.224 3.24.864.816 1.92 1.488 3.168 2.016 1.296.48 3.072 1.032 5.328 1.656 2.832.768 5.136 1.536 6.912 2.304a11.46 11.46 0 0 1 4.536 3.312c1.296 1.488 1.968 3.432 2.016 5.832 0 2.16-.6 4.104-1.8 5.832s-2.904 3.096-5.112 4.104c-2.16.96-4.656 1.44-7.488 1.44zm37.618 0c-3.024 0-5.736-.504-8.136-1.512-2.4-1.056-4.296-2.496-5.688-4.32-1.392-1.872-2.16-4.008-2.304-6.408h6.768c.192 1.968 1.104 3.576 2.736 4.824 1.68 1.248 3.864 1.872 6.552 1.872 2.496 0 4.464-.552 5.904-1.656s2.16-2.496 2.16-4.176c0-1.728-.768-3-2.304-3.816-1.536-.864-3.912-1.704-7.128-2.52-2.928-.768-5.328-1.536-7.2-2.304-1.824-.816-3.408-1.992-4.752-3.528-1.296-1.584-1.944-3.648-1.944-6.192 0-2.016.6-3.864 1.8-5.544s2.904-3 5.112-3.96c2.208-1.008 4.728-1.512 7.56-1.512 4.368 0 7.896 1.104 10.584 3.312s4.128 5.232 4.32 9.072h-6.552c-.144-2.064-.984-3.72-2.52-4.968-1.488-1.248-3.504-1.872-6.048-1.872-2.352 0-4.224.504-5.616 1.512s-2.088 2.328-2.088 3.96c0 1.296.408 2.376 1.224 3.24.864.816 1.92 1.488 3.168 2.016 1.296.48 3.072 1.032 5.328 1.656 2.832.768 5.136 1.536 6.912 2.304a11.46 11.46 0 0 1 4.536 3.312c1.296 1.488 1.968 3.432 2.016 5.832 0 2.16-.6 4.104-1.8 5.832s-2.904 3.096-5.112 4.104c-2.16.96-4.656 1.44-7.488 1.44zm-243.819-60.114c-.577 0-1.045-.467-1.045-1.046v-18.992c0-.576.468-1.046 1.045-1.046h28.551l.186-.194c1.638-1.701 6.617-6.882 5.706-12.926-.678-4.482-4.434-8.641-11.165-12.362-8.213-4.541-14.332-5.503-17.705-2.772-3.282 2.658-3.422 8.478-2.482 11.575.793 2.612 2.083 4.2 3.835 4.724 4.154 1.253 9.86-3.436 9.914-3.483.441-.371 1.1-.312 1.472.133a1.04 1.04 0 0 1-.131 1.47c-.268.223-6.604 5.438-11.851 3.884-2.468-.739-4.23-2.797-5.24-6.122-1.137-3.752-.909-10.512 3.167-13.808 4.14-3.353 10.883-2.49 20.032 2.571 7.328 4.05 11.442 8.722 12.221 13.88 1.067 7.061-4.453 12.8-6.265 14.684-.197.207-.348.361-.431.462a1.05 1.05 0 0 1-.804.375h-27.964v17.947c0 .579-.466 1.046-1.046 1.046zm65.338-48.002l3.659-6.966 7.056 6.966-7.579 2.874-32.873 30.055v-4.965l29.737-27.964z"/><path d="M349.601 195.834v-7.789l29.94-28.155 4.232-8.06 9.218 9.104-8.916 3.379-34.474 31.521zm2.09-6.885v2.14l31.459-28.661 6.058-2.298-4.896-4.832-3.21 5.993-29.411 27.658zm33.919-38.872l9.148 9.409 6.01-4.704-9.67-10.716-5.488 6.011z"/><path d="M394.661 160.891l-10.489-10.79 6.928-7.589 11.195 12.405-7.634 5.974zm-7.613-10.836l7.807 8.028 4.386-3.434-8.144-9.027-4.049 4.433zm6.141-8.602l10.454 12.113 16.465-16.034 18.556-14.896 2.091-4.443-8.363-9.148h-4.966l-17.772 18.556-16.465 13.852z"/><path d="M403.578 155.088l-11.872-13.754 17.274-14.533L426.978 108h5.875L442 118.005l-2.491 5.295-18.744 15.046-17.187 16.742zm-8.906-13.517l9.036 10.471 15.671-15.26 18.439-14.811 1.693-3.592-7.581-8.291h-4.055l-17.465 18.235-15.738 13.248zM207 187.5h143v6.5H207z"/></g></svg>